<svg id="Grupo_2" data-name="Grupo 2" xmlns="http://www.w3.org/2000/svg" xmlns:xlink="http://www.w3.org/1999/xlink" width="342.628" height="61.492" viewBox="0 0 342.628 61.492">
  <defs>
    <clipPath id="clip-path">
      <rect id="Rectángulo_10" data-name="Rectángulo 10" width="342.628" height="61.492" fill="none"/>
    </clipPath>
  </defs>
  <g id="Grupo_1" data-name="Grupo 1" clip-path="url(#clip-path)">
    <path id="Trazado_1" data-name="Trazado 1" d="M36.363,59.286c0-.021,0-.042,0-.063l-3.31-1.892a1.612,1.612,0,0,0-1.288-.135,1.921,1.921,0,0,0-1.109.843,18.406,18.406,0,0,1-5.073,5.853,12.235,12.235,0,0,1-7.475,2.344,6.646,6.646,0,0,1-5.181-2.324,8.875,8.875,0,0,1-2.021-6.08,51.331,51.331,0,0,1,.406-6.175,57.47,57.47,0,0,1,1.217-6.651A38.687,38.687,0,0,1,14.691,38.6a25.038,25.038,0,0,1,3.3-5.524,16.18,16.18,0,0,1,4.484-3.937,11.528,11.528,0,0,1,5.887-1.5A6.029,6.029,0,0,1,33.5,29.848,8.381,8.381,0,0,1,35.084,35v1A10.223,10.223,0,0,1,35,37.253a1.208,1.208,0,0,0,.373.982,1.188,1.188,0,0,0,1.034.381l.046,0,6.533-.127a24.957,24.957,0,0,1,3.005-3.234v-.09a18.191,18.191,0,0,0-1.5-7.746,14.616,14.616,0,0,0-9.5-8.148,23.741,23.741,0,0,0-6.581-.933A21.2,21.2,0,0,0,18.085,21.13,30.063,30.063,0,0,0,9,29.075,42.407,42.407,0,0,0,2.489,41.522,50.55,50.55,0,0,0,0,57.832a16.8,16.8,0,0,0,1.645,7.647,17.887,17.887,0,0,0,4.235,5.51,17.613,17.613,0,0,0,5.813,3.349,19.688,19.688,0,0,0,6.415,1.122,22.562,22.562,0,0,0,11.612-3.185,28.805,28.805,0,0,0,8.026-7.2,11.853,11.853,0,0,1-1.384-5.786" transform="translate(0 -13.968)" fill="#d2f167"/>
    <path id="Trazado_2" data-name="Trazado 2" d="M185.531,110.607l.1-.379.989-4.221-.409-.1.446-.811c.109-.2.214-.4.319-.6l3.541-15.111c0-.162.006-.322.006-.486a10.338,10.338,0,0,0-1.27-5.225,12.252,12.252,0,0,0-3.261-3.721,14.071,14.071,0,0,0-4.394-2.217A16.454,16.454,0,0,0,176.868,77a12.193,12.193,0,0,0-6.181,1.867,20.989,20.989,0,0,0-5.9,5.4,30.052,30.052,0,0,0-4.429,8.546,34.357,34.357,0,0,0-1.727,11.164,10.427,10.427,0,0,0,1.233,5.149,12.741,12.741,0,0,0,3.152,3.763,13.465,13.465,0,0,0,4.229,2.287,14.655,14.655,0,0,0,4.552.767,12.762,12.762,0,0,0,5.7-1.447,19.762,19.762,0,0,0,5.5-4.177l.328-.347.446.17a8.989,8.989,0,0,0,1.761.47m-3.988-21.43a13.181,13.181,0,0,1-.084,1.439l-.083.762-.755-.137a1.584,1.584,0,0,0-1.258.487c-.3.249-.917,1.037-1.7,3.511a12.721,12.721,0,0,0-.408,4.073,14.424,14.424,0,0,0,.877,4.274l.112.3-.153.284a11.526,11.526,0,0,1-2.906,3.584,6.457,6.457,0,0,1-4.131,1.438A3.354,3.354,0,0,1,168.526,108a4.581,4.581,0,0,1-1.069-3.206,41.533,41.533,0,0,1,.57-6.44,35.447,35.447,0,0,1,1.758-6.785,18.153,18.153,0,0,1,3.089-5.46,6.244,6.244,0,0,1,4.911-2.375,3.545,3.545,0,0,1,2.73,1.153,4.306,4.306,0,0,1,1.028,3.006Z" transform="translate(-120.842 -58.653)" fill="#d2f167"/>
    <path id="Trazado_3" data-name="Trazado 3" d="M319.46,113.6c0-.065-.011-.128-.011-.195a6.107,6.107,0,0,1,.223-1.542q.2-.76.439-1.637l.981-4.184a2.922,2.922,0,0,1-.4-1.653,21.351,21.351,0,0,1,.673-4.825c.442-1.846.925-3.731,1.435-5.6.517-1.9,1-3.746,1.425-5.484a18.529,18.529,0,0,0,.633-4.247,5.237,5.237,0,0,0-.777-2.761,8.4,8.4,0,0,0-2.142-2.33A11,11,0,0,0,315.481,77,10.826,10.826,0,0,0,310.9,78.09a12.175,12.175,0,0,0-4.011,2.989l-.6.678-.523-.737a10.408,10.408,0,0,0-3.149-2.925,8.038,8.038,0,0,0-4.2-1.1,6.926,6.926,0,0,0-3.782,1.061,13.462,13.462,0,0,0-3.268,3.036l-.541.683-.564-.663a2.526,2.526,0,0,0-1.179-.667c-.569-.156-1.321-.352-2.3-.6-.934-.236-1.7-.41-2.278-.517a2.515,2.515,0,0,0-.523-.063.879.879,0,0,0-.6.182,1.662,1.662,0,0,0-.528,1l-.008.037-7.055,30.1q-.239.88-.439,1.637a4.782,4.782,0,0,0-.177,1.179,1.235,1.235,0,0,0,.138.633.85.85,0,0,0,.5.231l.113.035a8.141,8.141,0,0,0,1.206.325q.927.2,1.972.443c.657.152,1.325.3,1.988.437l.233.048q.775.161,1.124.232l.054.013c.734.209.964-.006,1.04-.076a1.818,1.818,0,0,0,.545-1.047l.007-.036,5.379-22.8.02-.051a37.213,37.213,0,0,1,2.739-5.6c1.017-1.632,2.2-2.46,3.53-2.46a2.206,2.206,0,0,1,1.646.75,2.473,2.473,0,0,1,.67,1.726,15.9,15.9,0,0,1-.331,2.488c-.218,1.224-.489,2.631-.8,4.183-.319,1.571-.684,3.287-1.084,5.1-.379,1.717-.77,3.458-1.163,5.172q-.561,2.445-1,4.365c-.291,1.269-.492,2.178-.6,2.7l-.005.024c-.24,1.02-.111,1.377-.066,1.462s.158.3.7.395l.039.008q1.683.4,3.327.8c1.07.262,1.9.448,2.482.552l.025.005c1.428.311,1.717.023,1.729.01a2.164,2.164,0,0,0,.54-1.123c.055-.281.223-1,.529-2.28s.657-2.8,1.039-4.478c.393-1.728.812-3.6,1.281-5.723q.68-3.083,1.322-5.968l.016-.059a33.181,33.181,0,0,1,3.034-7.125c1.218-2.01,2.44-2.987,3.735-2.987a2.206,2.206,0,0,1,1.646.75,2.472,2.472,0,0,1,.671,1.726,14.659,14.659,0,0,1-.542,3.137c-.346,1.382-.751,2.961-1.2,4.693-.448,1.711-.848,3.513-1.19,5.357a27.984,27.984,0,0,0-.509,5.076,9.836,9.836,0,0,0,2.164,6.734,6.666,6.666,0,0,0,5.229,2.4c.121,0,.238-.007.357-.012" transform="translate(-209.625 -58.653)" fill="#d2f167"/>
    <path id="Trazado_4" data-name="Trazado 4" d="M514.844,112.655a13.031,13.031,0,0,1-.864-1.494,9.981,9.981,0,0,1-.961-4.441c0-.162,0-.329.007-.5a2.684,2.684,0,0,1-.531-1.826,21.355,21.355,0,0,1,.673-4.825c.441-1.845.924-3.73,1.435-5.6.517-1.9,1-3.745,1.425-5.484a18.541,18.541,0,0,0,.632-4.247,5.236,5.236,0,0,0-.777-2.761,8.4,8.4,0,0,0-2.142-2.33A10.994,10.994,0,0,0,507.283,77,10.827,10.827,0,0,0,502.7,78.09a12.173,12.173,0,0,0-4.011,2.989l-.6.678-.523-.737a10.408,10.408,0,0,0-3.149-2.925,8.038,8.038,0,0,0-4.2-1.1,6.926,6.926,0,0,0-3.782,1.061,13.465,13.465,0,0,0-3.268,3.036l-.541.683-.564-.663a2.527,2.527,0,0,0-1.179-.667c-.568-.156-1.319-.352-2.3-.6-.934-.236-1.7-.41-2.278-.517a2.515,2.515,0,0,0-.523-.063.879.879,0,0,0-.6.182,1.663,1.663,0,0,0-.528,1l-.008.037-7.055,30.1q-.239.88-.439,1.637a4.782,4.782,0,0,0-.177,1.179,1.235,1.235,0,0,0,.138.633.854.854,0,0,0,.5.231l.113.035a8.142,8.142,0,0,0,1.206.325q.927.2,1.973.443c.656.152,1.325.3,1.988.437l.218.045q.786.163,1.138.234l.054.013c.734.209.964-.006,1.04-.076a1.818,1.818,0,0,0,.545-1.047l.007-.036,5.379-22.8.021-.051a37.193,37.193,0,0,1,2.739-5.6c1.017-1.632,2.2-2.46,3.53-2.46a2.206,2.206,0,0,1,1.646.75,2.472,2.472,0,0,1,.67,1.726,15.893,15.893,0,0,1-.331,2.488c-.218,1.224-.488,2.631-.8,4.183-.32,1.571-.684,3.287-1.084,5.1-.379,1.717-.77,3.458-1.163,5.172l-.122.532q-.487,2.124-.879,3.833c-.291,1.269-.492,2.178-.6,2.7l-.005.024c-.24,1.02-.111,1.377-.066,1.462s.158.3.7.395l.039.008q1.684.4,3.327.8c1.069.262,1.9.447,2.482.552l.025.005c1.428.311,1.717.023,1.729.01a2.166,2.166,0,0,0,.54-1.123c.055-.281.223-1,.529-2.28s.657-2.8,1.039-4.478c.393-1.728.812-3.6,1.281-5.723q.679-3.083,1.322-5.969l.016-.059a33.194,33.194,0,0,1,3.034-7.125c1.218-2.01,2.44-2.987,3.735-2.987a2.206,2.206,0,0,1,1.646.75,2.472,2.472,0,0,1,.671,1.726,14.674,14.674,0,0,1-.542,3.137c-.346,1.382-.751,2.961-1.2,4.693-.448,1.711-.848,3.513-1.19,5.357a28,28,0,0,0-.508,5.076,9.837,9.837,0,0,0,2.164,6.734,6.667,6.667,0,0,0,5.229,2.4,8.027,8.027,0,0,0,3.939-.959" transform="translate(-355.733 -58.653)" fill="#d2f167"/>
    <path id="Trazado_5" data-name="Trazado 5" d="M687.876,112.506a6.075,6.075,0,0,0,3.314,1.123,2.788,2.788,0,0,1,.031-.356,26.018,26.018,0,0,1,.7-3.034L693,105.628a3.576,3.576,0,0,1-.182-1.215,20.893,20.893,0,0,1,.33-3.322c.209-1.26.481-2.672.807-4.2.322-1.5.688-3.061,1.088-4.632s.774-3.033,1.122-4.37c.356-1.369.673-2.516.968-3.508s.491-1.663.6-2.036a24.663,24.663,0,0,0,.662-2.877c.065-.422-.016-.689-.629-.877-.278-.056-.7-.16-1.329-.323-.6-.157-1.258-.318-1.943-.476s-1.334-.306-1.92-.44-1-.223-1.264-.277c-.314-.063-.88-.133-1.134.1a2.193,2.193,0,0,0-.6,1.066c-.032.128-.146.542-.725,2.5-.418,1.409-.9,3.108-1.478,5.194-.557,2.015-1.12,4.242-1.675,6.62s-.994,4.642-1.311,6.753l-.012.079-.029.075c-.485,1.239-1.019,2.445-1.588,3.584a30.159,30.159,0,0,1-1.724,3.036,11.285,11.285,0,0,1-1.8,2.18,3.18,3.18,0,0,1-2.121.946,1.814,1.814,0,0,1-1.373-.638,2.656,2.656,0,0,1-.543-1.839,20.3,20.3,0,0,1,.33-3.161c.21-1.266.467-2.674.764-4.185.292-1.491.631-3.05,1.007-4.633s.739-3.065,1.084-4.417c.364-1.43.652-2.581.879-3.517.249-1.023.415-1.677.524-2.055.259-1.093.457-2.066.586-2.893.066-.425-.017-.693-.643-.881L673.275,79.4a3.339,3.339,0,0,0-.405-.027,1.137,1.137,0,0,0-.757.209,1.682,1.682,0,0,0-.51.937l-.007.032c-.053.211-.212.78-.53,1.9-.3,1.042-.648,2.356-1.045,3.907s-.818,3.306-1.246,5.188c-.443,1.95-.863,3.848-1.25,5.639-.4,1.844-.72,3.633-.96,5.317a31.283,31.283,0,0,0-.356,4.225,8.569,8.569,0,0,0,.814,3.81,10.874,10.874,0,0,0,2.082,2.932,8.755,8.755,0,0,0,2.686,1.854,6.957,6.957,0,0,0,2.745.622,7.713,7.713,0,0,0,5.27-1.869,19.573,19.573,0,0,0,3.978-4.831l.647-1.088.6,1.116a8.692,8.692,0,0,0,2.847,3.225" transform="translate(-507.495 -58.669)" fill="#d2f167"/>
    <path id="Trazado_6" data-name="Trazado 6" d="M807.177,111.065a11.872,11.872,0,0,1-.77-4.345c0-.453.015-.933.042-1.431a4.133,4.133,0,0,1-.089-.9,21.665,21.665,0,0,1,.66-4.822c.219-.933.453-1.882.7-2.84.1-.46.2-.921.306-1.385.484-2.095,1-4.164,1.528-6.151.265-.993.526-1.949.782-2.859a13.882,13.882,0,0,0,.188-2.1,4.979,4.979,0,0,0-.81-2.749,8.977,8.977,0,0,0-2.189-2.342A11,11,0,0,0,801.067,77a8.116,8.116,0,0,0-4.09,1.078,12.607,12.607,0,0,0-3.522,3.1l-.56.7-.558-.7a1.442,1.442,0,0,0-.956-.623l-.068-.007-.065-.02c-.519-.157-1.306-.365-2.408-.638-1.076-.265-1.889-.453-2.414-.561a2.444,2.444,0,0,0-.51-.061.881.881,0,0,0-.6.183,1.664,1.664,0,0,0-.528,1l-.008.037L777.724,110.6a24.619,24.619,0,0,0-.662,2.878c-.066.425.01.653.618.8l.1.033a8.01,8.01,0,0,0,1.239.324c.669.14,1.347.289,2.019.444q1.035.239,1.954.439t1.31.278l.042.01c.544.144.925.12,1.132-.073a1.819,1.819,0,0,0,.545-1.047l.007-.036,5.3-22.483.021-.052a26.021,26.021,0,0,1,3.217-5.89c1.277-1.672,2.537-2.484,3.852-2.484a2.207,2.207,0,0,1,1.646.75,2.473,2.473,0,0,1,.67,1.726,14.628,14.628,0,0,1-.542,3.137q-.521,2.083-1.161,4.683c-.421,1.709-.809,3.514-1.153,5.366a28,28,0,0,0-.509,5.076,9.9,9.9,0,0,0,2.145,6.737,6.628,6.628,0,0,0,5.23,2.4,8.31,8.31,0,0,0,3.357-.665,11.832,11.832,0,0,1-.931-1.884" transform="translate(-591.923 -58.653)" fill="#d2f167"/>
    <path id="Trazado_7" data-name="Trazado 7" d="M922.441,109.884a34.452,34.452,0,0,0,2.825-5.729c.8-2.077,1.555-3.994,2.248-5.7a.817.817,0,0,0-.026-.671.881.881,0,0,0-.5-.466,18.789,18.789,0,0,1-1.793-.653.833.833,0,0,0-.658-.009.74.74,0,0,0-.414.476c-.3.763-.6,1.542-.918,2.345l-.607,1.549c-.535,1.364-1.081,2.633-1.622,3.771a19.588,19.588,0,0,1-1.666,2.912,2.724,2.724,0,0,1-2.1,1.421c-.576,0-1.916-.241-1.916-2.477a23.422,23.422,0,0,1,.37-3.722c.243-1.458.556-3.035.929-4.686s.8-3.359,1.29-5.119q.721-2.6,1.321-4.8c.4-1.454.762-2.74,1.086-3.822q.48-1.6.639-2.156l.009-.027a15.288,15.288,0,0,0,.69-2.828c.052-.422-.04-.706-.666-.9-.278-.056-.7-.16-1.329-.323-.606-.158-1.259-.318-1.943-.476s-1.334-.306-1.92-.44-1-.223-1.264-.277a2.929,2.929,0,0,0-.553-.061.861.861,0,0,0-.581.164,2.192,2.192,0,0,0-.6,1.066c-.034.134-.137.5-.611,1.955-.344,1.058-.749,2.362-1.236,3.989-.483,1.609-.993,3.421-1.516,5.386s-1.036,4.025-1.516,6.1c-.472,2.044-.859,4.06-1.151,5.994a34.743,34.743,0,0,0-.432,5.059,10.457,10.457,0,0,0,.672,3.825,9.356,9.356,0,0,0,1.746,2.9,7.419,7.419,0,0,0,2.412,1.793,6.637,6.637,0,0,0,2.786.616,7.308,7.308,0,0,0,4.759-1.645,16.954,16.954,0,0,0,3.764-4.344" transform="translate(-690.389 -58.668)" fill="#d2f167"/>
    <path id="Trazado_8" data-name="Trazado 8" d="M945.083,2.845A11.9,11.9,0,0,0,943.3,6.321a14.7,14.7,0,0,0-.688,4.659,4.283,4.283,0,0,0,.477,2.063,4.435,4.435,0,0,0,1.285,1.486,6.507,6.507,0,0,0,1.816.939,5.856,5.856,0,0,0,1.829.324,5.633,5.633,0,0,0,2.681-.716,8.288,8.288,0,0,0,2.483-2.105,10.81,10.81,0,0,0,1.81-3.42,14.971,14.971,0,0,0,.688-4.739,4.182,4.182,0,0,0-.508-2.125,4.911,4.911,0,0,0-1.335-1.5,5.738,5.738,0,0,0-1.826-.89A7.3,7.3,0,0,0,950.034,0a5.279,5.279,0,0,0-2.554.712,7.857,7.857,0,0,0-2.4,2.132" transform="translate(-718.049 0)" fill="#d2f167"/>
    <path id="Trazado_9" data-name="Trazado 9" d="M1015.674,175.486a5.559,5.559,0,0,0-1.776-.87,7.1,7.1,0,0,0-1.933-.288,5.1,5.1,0,0,0-2.479.7,7.679,7.679,0,0,0-2.345,2.1,12.587,12.587,0,0,0-1.8,3.456,13.921,13.921,0,0,0-.714,4.609,4.2,4.2,0,0,0,.461,2.008,4.34,4.34,0,0,0,1.243,1.447,6.341,6.341,0,0,0,1.771.921,5.888,5.888,0,0,0,1.859.318,5.726,5.726,0,0,0,2.623-.669,7.447,7.447,0,0,0,2.41-2.057,11.244,11.244,0,0,0,1.786-3.432,14.94,14.94,0,0,0,.678-4.7,4.091,4.091,0,0,0-.489-2.066,4.8,4.8,0,0,0-1.3-1.469" transform="translate(-765.29 -132.797)" fill="#ed71a9"/>
    <path id="Trazado_10" data-name="Trazado 10" d="M1129.457,53.685c.041-.317.085-.661.131-1.022a14.733,14.733,0,0,1-1.233-2.195,15.76,15.76,0,0,1-1.266-6.543,31.076,31.076,0,0,1,1.723-10.371,32.01,32.01,0,0,1,4.13-8.066q.224-1.838.438-3.673c.344-2.973.668-5.67.962-8.016s.533-4.284.72-5.806c.243-1.983.273-2.366.275-2.44l.006-.093c.158-1.154.278-2.181.357-3.051.034-.377,0-.63-.689-.707l-.046-.007-8.42-1.509c-.128.009-.352.074-.593.536a14.1,14.1,0,0,0-.686,1.483l-.054.144-.062.062c-.055.093-.222.4-.715,1.384l-1.923,3.845c-.787,1.574-1.719,3.4-2.848,5.576-1.066,2.054-2.224,4.3-3.443,6.685l-.453.885q-1.59,3.111-3.272,6.4c-1.245,2.44-2.513,4.894-3.768,7.3l-1.222,2.338-.126-2.635c-.156-3.265-.344-6.752-.56-10.364-.208-3.453-.4-6.783-.561-9.9q-.24-4.566-.4-7.691c-.132-2.556-.2-3.431-.236-3.714a1.5,1.5,0,0,0-.206-.612.818.818,0,0,0-.443-.22L1097.489.237a1.315,1.315,0,0,0-1.138.045,1.342,1.342,0,0,0-.529.849l-.021.083-16.581,50.7a12.908,12.908,0,0,0-.648,2.923c-.05.577.129.83.681.962l7.276,1.439a1.706,1.706,0,0,0,1.242-.076,1.616,1.616,0,0,0,.571-.922c.051-.225.219-.778.772-2.521q.76-2.4,1.963-6.169t2.683-8.449c.955-3.021,1.966-6.188,3-9.416l1.17-3.632.224,3.809c.156,2.646.3,5.356.441,8.056l.36,7.17c.106,2.123.187,3.891.241,5.254s.075,1.969.08,2.171a.914.914,0,0,0,.7.819,13.35,13.35,0,0,0,2.054.456l.04.007q1.2.24,2.639.52c.929.182,1.943.355,3.013.516l.036.006c.444.089.6-.053.657-.106a5.483,5.483,0,0,0,.965-1.515l.078-.13c.072-.131.3-.568,1-2.023.665-1.384,1.557-3.181,2.65-5.34,1.063-2.1,2.3-4.514,3.767-7.373,1.431-2.783,2.872-5.624,4.282-8.443l1.839-3.677-.49,4.082c-.318,2.652-.642,5.294-.962,7.853-.314,2.515-.611,4.821-.882,6.855-.274,2.051-.5,3.653-.682,4.9-.247,1.649-.271,1.965-.273,2.022l-.006.092c-.159,1.164-.265,2.157-.315,2.953-.022.337.018.653.731.82l7.563,1.512c.522.066.876-.01,1.052-.226a1.95,1.95,0,0,0,.441-1.038c.006-.121.043-.5.285-2.368" transform="translate(-821.612 -0.104)" fill="#ff8000"/>
    <path id="Trazado_11" data-name="Trazado 11" d="M1317.641,108.4a41.606,41.606,0,0,0,3.189-4.066,27.144,27.144,0,0,0,2.068-3.509c.479-1.009.831-1.763,1.046-2.245a.98.98,0,0,0-.049-.633.622.622,0,0,0-.26-.318l-.05-.022a7.922,7.922,0,0,0-.909-.4c-.248-.083-.582-.2-.994-.357a1.028,1.028,0,0,0-.777.026.989.989,0,0,0-.41.479l-.021.056a24.405,24.405,0,0,1-1.775,3.185,20.186,20.186,0,0,1-3.4,3.988,21.008,21.008,0,0,1-4.975,3.36,14.613,14.613,0,0,1-6.523,1.435,7.448,7.448,0,0,1-3.234-.63,6.175,6.175,0,0,1-2.124-1.629,5.788,5.788,0,0,1-1.141-2.231,7.122,7.122,0,0,1-.223-2.324v-2.066l1.195,1.084a6.649,6.649,0,0,0,1.918,1.187,6.2,6.2,0,0,0,2.408.464,9.347,9.347,0,0,0,4.865-1.686,24.2,24.2,0,0,0,5.134-4.423,28.221,28.221,0,0,0,3.984-5.806,12.559,12.559,0,0,0,1.563-5.666,5.7,5.7,0,0,0-1.035-3.348,9.561,9.561,0,0,0-2.8-2.639,14.854,14.854,0,0,0-3.974-1.713,16.852,16.852,0,0,0-4.457-.614,11.235,11.235,0,0,0-6.062,1.969,22.249,22.249,0,0,0-5.7,5.435,30.25,30.25,0,0,0-4.223,8.1,29.657,29.657,0,0,0-1.641,9.895,14.356,14.356,0,0,0,1.137,5.952,12.2,12.2,0,0,0,3.025,4.165,12.355,12.355,0,0,0,4.28,2.462,15.6,15.6,0,0,0,4.941.8,18.308,18.308,0,0,0,6.4-1.088,22.893,22.893,0,0,0,5.36-2.824,25.379,25.379,0,0,0,4.245-3.805m-19.732-11.32a22.815,22.815,0,0,1,2.233-5.085,31.706,31.706,0,0,1,2.869-4.1,18.311,18.311,0,0,1,2.88-2.834,4.456,4.456,0,0,1,2.475-1.147c1.1,0,1.756.746,1.756,2a5.737,5.737,0,0,1-1.055,2.6,26.187,26.187,0,0,1-2.594,3.667,27.64,27.64,0,0,1-3.577,3.577,10.522,10.522,0,0,1-4.129,2.226l-1.222.306Z" transform="translate(-981.346 -58.909)" fill="#ff8000"/>
  </g>
</svg>
